<?xml version="1.0" encoding="UTF-8"?>
<svg id="_レイヤー_1" data-name="レイヤー 1" xmlns="http://www.w3.org/2000/svg" viewBox="0 0 300 300">
  <defs>
    <style>
      .cls-1 {
        fill: gray;
        stroke-width: 0px;
      }
    </style>
  </defs>
  <g>
    <path class="cls-1" d="m27.89,108h54.11v84H27.89c-5.46,0-9.89-4.43-9.89-9.89v-64.22c0-5.46,4.43-9.89,9.89-9.89Z"/>
    <path class="cls-1" d="m23.35,155.59l115.37,87.82c4.63,3.52,11.28.22,11.28-5.59V62.18c0-5.81-6.66-9.11-11.28-5.59L23.35,144.41c-3.69,2.81-3.69,8.37,0,11.18Z"/>
  </g>
  <g>
    <path class="cls-1" d="m178.65,104.04h0c-3.24,2.46-4.14,6.97-2.03,10.46,6.22,10.31,9.81,22.38,9.81,35.28s-3.69,25.3-10.07,35.7c-2.14,3.49-1.25,8.03,2,10.5h0c3.74,2.84,9.15,1.89,11.61-2.11,7.9-12.84,12.46-27.94,12.46-44.09s-4.44-30.85-12.14-43.58c-2.44-4.03-7.88-5-11.63-2.15Z"/>
    <path class="cls-1" d="m204.23,84.62h0c-3.35,2.54-4.13,7.23-1.84,10.76,10.14,15.69,16.03,34.36,16.03,54.39s-6,39.04-16.31,54.82c-2.31,3.54-1.55,8.24,1.82,10.8h0c3.71,2.81,9.01,1.87,11.56-2.03,11.97-18.3,18.93-40.14,18.93-63.59s-6.84-44.9-18.61-63.09c-2.54-3.92-7.86-4.88-11.57-2.06Z"/>
    <path class="cls-1" d="m230.24,64.89h0c-3.38,2.57-4.16,7.31-1.79,10.83,14.24,21.18,22.56,46.66,22.56,74.05s-8.44,53.22-22.86,74.49c-2.39,3.52-1.61,8.28,1.78,10.85h0c3.63,2.76,8.86,1.94,11.42-1.83,16.18-23.84,25.65-52.59,25.65-83.51s-9.34-59.28-25.32-83.03c-2.55-3.79-7.8-4.62-11.44-1.86Z"/>
  </g>
</svg>