<?xml version="1.0" encoding="UTF-8"?>
<svg id="_レイヤー_1" data-name="レイヤー 1" xmlns="http://www.w3.org/2000/svg" viewBox="0 0 300 300">
  <defs>
    <style>
      .cls-1 {
        stroke-width: 0px;
      }
    </style>
  </defs>
  <path class="cls-1" d="m38.21,194.05c-12.56,0-22.79-11.1-22.79-24.74V48.54c0-13.64,10.22-24.74,22.79-24.74h223.57c12.56,0,22.79,11.1,22.79,24.74v120.77c0,13.64-10.22,24.74-22.79,24.74H38.21Zm0-152.88c-3.74,0-6.79,3.31-6.79,7.37v120.77c0,4.06,3.04,7.37,6.79,7.37h223.57c3.74,0,6.79-3.31,6.79-7.37V48.54c0-4.06-3.04-7.37-6.79-7.37H38.21Z"/>
  <path class="cls-1" d="m149.91,276.21c-1.6,0-3.21-.39-4.63-1.14l-74.1-38.78c-4.89-2.56-6.78-8.61-4.22-13.5,1.73-3.31,5.13-5.36,8.86-5.36,1.6,0,3.21.39,4.63,1.14l74.1,38.78c4.89,2.56,6.78,8.61,4.22,13.5-1.73,3.31-5.13,5.36-8.86,5.36Z"/>
  <path class="cls-1" d="m150.09,276.21c-3.74,0-7.13-2.06-8.86-5.36-2.56-4.88-.66-10.94,4.22-13.5l74.1-38.78c1.43-.75,3.03-1.14,4.63-1.14,3.74,0,7.13,2.06,8.87,5.36,2.56,4.88.66,10.94-4.22,13.5l-74.1,38.78c-1.43.75-3.03,1.14-4.63,1.14Z"/>
  <g>
    <rect class="cls-1" x="95.88" y="133.55" width="106.39" height="22.91"/>
    <rect class="cls-1" x="55.07" y="133.55" width="22.91" height="22.91"/>
    <rect class="cls-1" x="222.02" y="133.55" width="22.91" height="22.91"/>
    <rect class="cls-1" x="55.07" y="61.38" width="22.91" height="22.91"/>
    <rect class="cls-1" x="55.07" y="97.47" width="22.91" height="22.91"/>
    <rect class="cls-1" x="222.02" y="61.38" width="22.91" height="22.91"/>
    <rect class="cls-1" x="222.02" y="97.47" width="22.91" height="22.91"/>
    <rect class="cls-1" x="95.88" y="61.38" width="22.91" height="22.91"/>
    <rect class="cls-1" x="95.88" y="97.47" width="22.91" height="22.91"/>
    <rect class="cls-1" x="136.69" y="61.38" width="22.91" height="22.91"/>
    <rect class="cls-1" x="136.69" y="97.47" width="22.91" height="22.91"/>
    <rect class="cls-1" x="179.36" y="61.38" width="22.91" height="22.91"/>
    <rect class="cls-1" x="179.36" y="97.47" width="22.91" height="22.91"/>
  </g>
</svg>