<?xml version="1.0" encoding="UTF-8"?>
<svg id="_レイヤー_1" data-name="レイヤー 1" xmlns="http://www.w3.org/2000/svg" viewBox="0 0 300 300">
  <defs>
    <style>
      .cls-1 {
        fill: #040404;
      }

      .cls-1, .cls-2, .cls-3 {
        stroke-width: 0px;
      }

      .cls-4 {
        fill: none;
        stroke-width: 17.83px;
      }

      .cls-4, .cls-5 {
        stroke: #000;
        stroke-miterlimit: 10;
      }

      .cls-2 {
        fill: #fff;
      }

      .cls-3 {
        fill: #fdfdfd;
      }

      .cls-5 {
        fill: #0000fe;
        stroke-width: 12px;
      }
    </style>
  </defs>
  <rect class="cls-2" x="18.7" y="87.15" width="262.37" height="166.78"/>
  <rect class="cls-5" x="18.92" y="46.07" width="262.37" height="41.08"/>
  <rect class="cls-4" x="18.92" y="46.07" width="262.37" height="207.86"/>
  <path class="cls-1" d="m113.44,167.37c0,10.52,1.08,20.74,3.67,30.78,6.34,24.58,34.05,34.88,53.29,19.71,7.91-6.24,11.36-15.21,13.21-24.66,3.64-18.53,3.76-37.16-1.03-55.49-3.67-14.06-11.41-24.49-27.14-27-16.14-2.57-30.03,5.19-36.18,20.72-4.6,11.62-5.83,23.82-5.83,35.94Z"/>
  <path class="cls-3" d="m163.47,159.18c-9.35,9.78-18.01,18.09-25.71,27.22-3.27,3.88.12,8.88,1.82,13.03,1.83,4.49,5.39,6.8,10.52,6.72,4.86-.07,8.02-2.42,10.16-6.49,2.12-4.03,2.87-8.54,3.09-12.92.43-8.44.12-16.92.12-27.56Z"/>
  <path class="cls-3" d="m136.15,174.68c8.6-8.66,16.21-16.72,24.28-24.3,4.87-4.58,1.78-8.95.46-13.26-1.44-4.72-4.56-7.97-10-8.33-5.27-.36-8.98,1.82-11.35,6.39-2.27,4.39-2.99,9.3-3.26,14.05-.47,8.06-.13,16.18-.13,25.45Z"/>
</svg>