<?xml version="1.0" encoding="UTF-8"?>
<svg id="_レイヤー_1" data-name="レイヤー 1" xmlns="http://www.w3.org/2000/svg" viewBox="0 0 300 300">
  <defs>
    <style>
      .cls-1 {
        stroke-width: 0px;
      }
    </style>
  </defs>
  <path class="cls-1" d="m208.56,255.27h-117.11c-11.4,0-20.67-9.27-20.67-20.67V89.34c0-11.4,9.27-20.67,20.67-20.67h117.11c11.4,0,20.67,9.27,20.67,20.67v145.27c0,11.4-9.27,20.67-20.67,20.67ZM91.44,85.65c-2.03,0-3.68,1.65-3.68,3.68v145.27c0,2.03,1.65,3.68,3.68,3.68h117.11c2.03,0,3.68-1.65,3.68-3.68V89.34c0-2.03-1.65-3.68-3.68-3.68h-117.11Z"/>
  <rect class="cls-1" x="103.45" y="72.98" width="93.11" height="33.97"/>
  <path class="cls-1" d="m150,93.84c-13.54,0-24.56-11.02-24.56-24.56s11.02-24.56,24.56-24.56,24.56,11.02,24.56,24.56-11.02,24.56-24.56,24.56Zm0-35.53c-6.05,0-10.97,4.92-10.97,10.97s4.92,10.97,10.97,10.97,10.97-4.92,10.97-10.97-4.92-10.97-10.97-10.97Z"/>
</svg>